<?xml version="1.0" encoding="UTF-8" ?>
<!DOCTYPE svg PUBLIC "-//W3C//DTD SVG 1.1//EN" "http://www.w3.org/Graphics/SVG/1.1/DTD/svg11.dtd">
<svg width="1130pt" height="1130pt" viewBox="0 0 1130 1130" version="1.1" xmlns="http://www.w3.org/2000/svg">
<g id="#ffffffff">
<path fill="#ffffff" opacity="1.00" d=" M 394.68 0.00 L 735.30 0.00 C 735.40 113.61 735.31 227.21 735.35 340.82 C 621.78 340.81 508.22 340.81 394.65 340.82 C 394.67 227.21 394.62 113.61 394.68 0.00 Z" />
<path fill="#ffffff" opacity="1.00" d=" M 789.27 0.00 L 1130.00 0.00 L 1130.00 340.70 C 1108.99 340.97 1087.98 340.74 1066.98 340.82 C 974.37 340.81 881.76 340.83 789.16 340.81 C 789.26 227.21 789.04 113.60 789.27 0.00 Z" />
<path fill="#ffffff" opacity="1.00" d=" M 0.00 394.69 C 113.62 394.58 227.24 394.66 340.85 394.65 C 340.81 508.22 340.81 621.78 340.85 735.35 C 227.24 735.36 113.62 735.39 0.00 735.33 L 0.00 394.69 Z" />
<path fill="#ffffff" opacity="1.00" d=" M 394.57 394.56 C 508.19 394.54 621.81 394.55 735.43 394.56 C 735.43 508.18 735.42 621.81 735.43 735.44 C 621.81 735.46 508.19 735.46 394.57 735.44 C 394.58 621.81 394.58 508.19 394.57 394.56 Z" />
<path fill="#ffffff" opacity="1.00" d=" M 789.14 394.65 C 902.76 394.64 1016.38 394.61 1130.00 394.67 L 1130.00 735.31 C 1016.38 735.42 902.76 735.34 789.14 735.35 C 789.19 621.78 789.19 508.22 789.14 394.65 Z" />
<path fill="#ffffff" opacity="1.00" d=" M 0.00 789.32 C 3.00 789.08 6.02 789.14 9.03 789.16 C 119.63 789.17 230.24 789.15 340.84 789.17 C 340.75 902.78 340.96 1016.39 340.74 1130.00 L 0.00 1130.00 L 0.00 789.32 Z" />
<path fill="#ffffff" opacity="1.00" d=" M 394.65 789.16 C 508.22 789.16 621.78 789.16 735.35 789.16 C 735.33 902.77 735.38 1016.39 735.32 1130.00 L 394.70 1130.00 C 394.60 1016.39 394.69 902.77 394.65 789.16 Z" />
</g>
</svg>
