<?xml version="1.0" encoding="UTF-8" ?>
<!DOCTYPE svg PUBLIC "-//W3C//DTD SVG 1.1//EN" "http://www.w3.org/Graphics/SVG/1.1/DTD/svg11.dtd">
<svg width="200pt" height="200pt" viewBox="0 0 200 200" version="1.1" xmlns="http://www.w3.org/2000/svg">
<g id="#94f33fff">
<path fill="#94f33f" opacity="1.00" d=" M 71.13 0.00 L 128.25 0.00 C 128.25 19.04 128.25 38.08 128.25 57.13 C 109.21 57.12 90.17 57.12 71.13 57.13 C 71.13 38.09 71.13 19.04 71.13 0.00 Z" />
<path fill="#94f33f" opacity="1.00" d=" M 142.25 0.00 L 199.38 0.00 C 199.37 19.04 199.38 38.08 199.37 57.12 C 180.33 57.10 161.29 57.16 142.25 57.09 C 142.25 38.06 142.26 19.03 142.25 0.00 Z" />
<path fill="#94f33f" opacity="1.00" d=" M 0.00 71.13 C 19.04 71.13 38.09 71.12 57.13 71.13 C 57.11 90.17 57.15 109.21 57.11 128.24 C 38.07 128.25 19.04 128.25 0.00 128.24 L 0.00 71.13 Z" />
<path fill="#94f33f" opacity="1.00" d=" M 71.13 71.13 C 90.16 71.12 109.19 71.13 128.22 71.13 C 128.28 90.17 128.23 109.21 128.25 128.24 C 109.21 128.27 90.17 128.22 71.13 128.27 C 71.13 109.22 71.12 90.18 71.13 71.13 Z" />
<path fill="#94f33f" opacity="1.00" d=" M 142.23 71.12 C 161.28 71.14 180.32 71.12 199.36 71.13 C 199.39 90.16 199.38 109.20 199.37 128.23 C 180.33 128.27 161.29 128.24 142.25 128.25 C 142.24 109.20 142.28 90.16 142.23 71.12 Z" />
<path fill="#94f33f" opacity="1.00" d=" M 71.14 142.27 C 90.18 142.24 109.21 142.26 128.25 142.26 C 128.26 161.30 128.23 180.34 128.26 199.38 C 109.22 199.36 90.17 199.39 71.13 199.36 C 71.13 180.33 71.11 161.30 71.14 142.27 Z" />
</g>
<g id="#ffffffff">
<path fill="#ffffff" opacity="1.00" d=" M 0.00 142.25 C 19.05 142.25 38.10 142.25 57.14 142.25 C 57.10 161.29 57.13 180.33 57.13 199.38 C 38.09 199.37 19.04 199.38 0.00 199.37 L 0.00 142.25 Z" />
</g>
</svg>
