<svg width="100" height="30" viewBox="0 0 100 30" xmlns="http://www.w3.org/2000/svg">
  <style>
    path { fill: #1b1f23 !important; }
    @media (prefers-color-scheme: dark) { path { fill: white !important; } }
  </style>
  <path d="M12.4 12.3c2.4 0 4.4.9 5.9 2.4.4.4.4 1.1 0 1.5l-.7.7c-.4.4-1.1.4-1.5 0-1-1-2.3-1.6-3.7-1.6-2.9 0-5.3 2.4-5.3 5.3s2.4 5.3 5.3 5.3c1.4 0 2.7-.6 3.7-1.6.4-.4 1.1-.4 1.5 0l.7.7c.4.4.4 1.1 0 1.5-1.5 1.5-3.5 2.4-5.9 2.4-4.6 0-8.3-3.7-8.3-8.3s3.7-8.3 8.3-8.3zM28.7 12.3c4.6 0 8.3 3.7 8.3 8.3s-3.7 8.3-8.3 8.3-8.3-3.7-8.3-8.3 3.7-8.3 8.3-8.3zm0 13.6c2.9 0 5.3-2.4 5.3-5.3s-2.4-5.3-5.3-5.3-5.3 2.4-5.3 5.3 2.4 5.3 5.3 5.3zM45 12.3c4.6 0 8.3 3.7 8.3 8.3s-3.7 8.3-8.3 8.3-8.3-3.7-8.3-8.3 3.7-8.3 8.3-8.3zm0 13.6c2.9 0 5.3-2.4 5.3-5.3s-2.4-5.3-5.3-5.3-5.3 2.4-5.3 5.3 2.4 5.3 5.3 5.3zM61.3 12.3c4.6 0 8.3 3.7 8.3 8.3s-3.7 8.3-8.3 8.3-8.3-3.7-8.3-8.3 3.7-8.3 8.3-8.3zm0 13.6c2.9 0 5.3-2.4 5.3-5.3s-2.4-5.3-5.3-5.3-5.3 2.4-5.3 5.3 2.4 5.3 5.3 5.3zM77.6 12.3c4.6 0 8.3 3.7 8.3 8.3s-3.7 8.3-8.3 8.3-8.3-3.7-8.3-8.3 3.7-8.3 8.3-8.3zm0 13.6c2.9 0 5.3-2.4 5.3-5.3s-2.4-5.3-5.3-5.3-5.3 2.4-5.3 5.3 2.4 5.3 5.3 5.3zM93.9 12.3c4.6 0 8.3 3.7 8.3 8.3s-3.7 8.3-8.3 8.3-8.3-3.7-8.3-8.3 3.7-8.3 8.3-8.3zm0 13.6c2.9 0 5.3-2.4 5.3-5.3s-2.4-5.3-5.3-5.3-5.3 2.4-5.3 5.3 2.4 5.3 5.3 5.3z"/>
</svg>
