<svg width="440" height="30" viewBox="0 0 440 30" fill="none" xmlns="http://www.w3.org/2000/svg">
  <style>
    path { fill: #1b1f23 !important; }
    @media (prefers-color-scheme: dark) { path { fill: white !important; } }
  </style>
  <path d="M14.654 23.361H6.18V6.656H14.167C18.667 6.656 21.01 8.877 21.01 11.517C21.01 13.065 20.3 14.28 18.633 15.114C20.667 15.864 22 17.517 22 19.336C22 22.017 19.431 23.361 14.654 23.361ZM10.513 13.89H13.68C16.486 13.89 17.612 13.042 17.612 11.433C17.612 9.947 16.513 9.043 13.68 9.043H10.513V13.89ZM10.513 20.958H14.167C16.806 20.958 18.597 20.18 18.597 18.25C18.597 16.486 17.028 15.653 14.236 15.653H10.513V20.958Z" />
  <path d="M29.584 23.361H25.264V6.656H29.584V23.361Z" />
  <path d="M48.21 21.361C46.807 22.75 44.473 23.708 41.681 23.708C36.723 23.708 33.154 19.958 33.154 15.181C33.154 10.32 36.834 6.656 41.778 6.656C44.403 6.656 46.514 7.421 47.931 8.809C48.654 9.531 48.791 10.364 48.167 11.003C47.389 11.725 46.68 11.753 45.918 11.239C44.917 10.545 43.515 9.877 41.861 9.877C38.903 9.877 37.403 12.003 37.403 15.139C37.403 18.153 38.653 20.486 41.667 20.486C43.348 20.486 44.75 19.806 45.875 18.917C46.403 18.5 47.223 18.514 47.903 19.014C48.514 19.458 48.764 20.486 48.21 21.361Z" />
  <path d="M66.417 23.361H61.889L56.709 17.069C55.625 15.753 54.764 14.681 53.861 13.569C53.792 14.736 53.736 16.292 53.736 17.708V23.361H49.597V6.656H54.125L59.084 12.656C60.209 14.017 61.084 15.156 62.014 16.364C61.944 15.169 61.889 13.542 61.889 12.181V6.656H66.417V23.361Z" />
  <path d="M82.848 22.069C81.654 23.014 79.792 23.708 77.584 23.708C73.348 23.708 70.084 21.32 70.084 18.014C70.084 15.125 71.959 13.333 75.986 12.569L82.167 11.389V10.833C82.167 9.167 80.959 8.361 78.584 8.361C76.292 8.361 74.348 9.306 73.181 10.364C72.57 10.961 71.694 10.947 71.056 10.364C70.361 9.725 70.361 8.877 71.014 8.236C72.82 6.444 75.695 5.656 79.167 5.656C83.986 5.656 86.417 8.017 86.417 12.222V23.361H82.417L82.167 21.847C82.167 21.847 82.167 21.847 82.111 21.847L82.848 22.069ZM82.167 14.097L77.084 15.1C75.14 15.517 74.348 16.375 74.348 17.847C74.348 19.389 75.681 20.486 77.848 20.486C80.347 20.486 82.167 18.917 82.167 16.653V14.097Z" />
  <path d="M101.403 21.058C100.222 22.1 98.403 22.708 96.584 22.708C93.431 22.708 91.597 21.236 91.597 19.264C91.597 17.5 92.653 16.333 95.847 15.708L101 14.708V14.222C101 12.875 100.084 12.236 98.125 12.236C96.25 12.236 94.625 12.986 93.681 13.806C93.181 14.236 92.417 14.236 91.861 13.806C91.222 13.319 91.139 12.444 91.681 11.889C93.139 10.292 95.431 9.389 98.611 9.389C102.584 9.389 104.584 11.236 104.584 14.889V22.361H101.306L101.125 21.058C101.125 21.058 101.125 21.058 101.069 21.058L101.403 21.058ZM101 17L97.431 17.694C95.903 17.986 95.208 18.667 95.208 19.847C95.208 21.181 96.278 22.069 98.028 22.069C100.042 22.069 101.5 20.736 101.5 18.917V17H101Z" />
  <path d="M117.848 23.361H113.681L108.639 12.656H113.167L115.848 19.592L118.528 12.656H123.056L117.848 23.361Z" />
  <path d="M136.417 11.125L131.236 11.125V6.656H136.417V11.125Z" />
</svg>
