<svg width="256" height="50" viewBox="0 0 256 50" fill="none" xmlns="http://www.w3.org/2000/svg">
<path d="M22.9922 10.4531H12.6094V14.8906H22.9922V10.4531Z" fill="#1b1f23"/>
<path d="M41.7422 10.4531H31.3594V14.8906H41.7422V10.4531Z" fill="#1b1f23"/>
<path d="M4.24219 25.4375H14.625V20.9844H4.24219V25.4375Z" fill="#1b1f23"/>
<path d="M22.9922 25.4375H12.6094V20.9844H22.9922V25.4375Z" fill="#1b1f23"/>
<path d="M41.7422 25.4375H31.3594V20.9844H41.7422V25.4375Z" fill="#1b1f23"/>
<path d="M4.24219 40.4062H14.625V35.9531H4.24219V40.4062Z" fill="#1b1f23"/>
<path d="M22.9922 40.4062H12.6094V35.9531H22.9922V40.4062Z" fill="#1b1f23"/>
<path d="M68.5156 40.4062C72.3333 40.4062 75.3906 37.349 75.3906 33.5312C75.3906 29.7135 72.3333 26.6562 68.5156 26.6562C64.6979 26.6562 61.6406 29.7135 61.6406 33.5312C61.6406 37.349 64.6979 40.4062 68.5156 40.4062ZM68.5156 44.8906C62.2448 44.8906 57.1562 39.8021 57.1562 33.5312C57.1562 27.2604 62.2448 22.1719 68.5156 22.1719C74.7865 22.1719 79.875 27.2604 79.875 33.5312C79.875 39.8021 74.7865 44.8906 68.5156 44.8906ZM99.0469 44.4062H94.1094L86.4219 33.4062L86.3281 33.4062V44.4062H81.8438V22.6562H86.7812L94.4688 33.6562L94.5625 33.6562V22.6562H99.0469V44.4062ZM115.656 44.4062H110.844L104.281 22.6562H108.953L113.344 38.6562L113.438 38.6562L117.828 22.6562H122.5L115.938 44.4062H115.656ZM141.031 35.1094H129.562V40.2188H142.062V44.4062H125.078V22.6562H141.688V26.8438H129.562V31.125H141.031V35.1094ZM156.406 36.3125L160.812 44.4062H155.844L151.438 36.3125H150.938V44.4062H146.453V22.6562H153.156C157.651 22.6562 160.406 25.1042 160.406 29.4375C160.406 32.5469 158.859 34.6875 156.406 36.0312V36.3125ZM150.938 32.3438H152.094C154.594 32.3438 155.906 31.4219 155.906 29.4375C155.906 27.5 154.625 26.4844 152.406 26.4844H150.938V32.3438ZM179.844 44.4062L174.672 36.7812L169.516 44.4062H164.203L172.078 33.25L164.859 22.6562H170.156L174.672 29.5781L179.172 22.6562H184.453L177.25 33.25L185.125 44.4062H179.844Z" fill="#1b1f23"/>
</svg>
