<svg width="100" height="30" viewBox="0 0 100 30" xmlns="http://www.w3.org/2000/svg">
  <style>
    path { fill: #1b1f23 !important; }
    @media (prefers-color-scheme: dark) { path { fill: white !important; } }
  </style>
  <path d="M16.6 12.9c-.3-.4-.7-.6-1.1-.6-.4 0-.8.2-1.1.6l-5.8 7.3-2.9-3.7c-.3-.4-.7-.6-1.1-.6-.4 0-.8.2-1.1.6-.6.7-.6 1.7 0 2.3l4 5.1c.3.4.7.6 1.1.6s.8-.2 1.1-.6l6.9-8.7c.7-.7.7-1.7.1-2.3zM40.3 12.3c-4.8 0-8.7 3.9-8.7 8.7s3.9 8.7 8.7 8.7 8.7-3.9 8.7-8.7-3.9-8.7-8.7-8.7zm0 14.5c-3.2 0-5.8-2.6-5.8-5.8s2.6-5.8 5.8-5.8 5.8 2.6 5.8 5.8-2.6 5.8-5.8 5.8zM57.6 12.3c-4.8 0-8.7 3.9-8.7 8.7s3.9 8.7 8.7 8.7 8.7-3.9 8.7-8.7-3.9-8.7-8.7-8.7zm0 14.5c-3.2 0-5.8-2.6-5.8-5.8s2.6-5.8 5.8-5.8 5.8 2.6 5.8 5.8-2.6 5.8-5.8 5.8zM76.9 12.3c-4.8 0-8.7 3.9-8.7 8.7s3.9 8.7 8.7 8.7 8.7-3.9 8.7-8.7-3.9-8.7-8.7-8.7zm0 14.5c-3.2 0-5.8-2.6-5.8-5.8s2.6-5.8 5.8-5.8 5.8 2.6 5.8 5.8-2.6 5.8-5.8 5.8zM91.3 12.3c-4.8 0-8.7 3.9-8.7 8.7s3.9 8.7 8.7 8.7 8.7-3.9 8.7-8.7-3.9-8.7-8.7-8.7zm0 14.5c-3.2 0-5.8-2.6-5.8-5.8s2.6-5.8 5.8-5.8 5.8 2.6 5.8 5.8-2.6 5.8-5.8 5.8z"/>
</svg>
