<svg width="100" height="30" viewBox="0 0 283 64" fill="none" xmlns="http://www.w3.org/2000/svg">
  <style>
    path { fill: #1b1f23 !important; }
    @media (prefers-color-scheme: dark) { path { fill: white !important; } }
  </style>
  <mask id="mask0" mask-type="alpha" maskUnits="userSpaceOnUse" x="0" y="0" width="283" height="64">
    <path fill-rule="evenodd" clip-rule="evenodd" d="M0 0H282.492V63.5135H0V0Z" fill="white" />
  </mask>
  <g mask="url(#mask0)">
    <path fill-rule="evenodd" clip-rule="evenodd" d="M37.3197 45.4262H18.9171V42.0645H33.5907V21.4489H18.9171V18.1066H37.3197V45.4262ZM44.1352 18.1066H62.5379V21.4489H47.8837V31.761H62.5379V35.1033H47.8837V42.0645H62.5379V45.4262H44.1352V18.1066ZM70.4735 18.1066H81.3346C87.4257 18.1066 92.4868 23.1678 92.4868 29.2588C92.4868 32.3043 91.2486 35.0601 89.2485 37.0602C87.2484 39.0603 84.4927 40.2985 81.4471 40.2985H74.222V45.3853H70.4735V18.1066ZM81.3346 36.5501C85.3619 36.5501 88.7383 33.1736 88.7383 29.1463C88.7383 25.1189 85.3619 21.7425 81.3346 21.7425H74.222V36.5501H81.3346ZM110.638 18.1066H120.312C126.403 18.1066 131.464 23.1678 131.464 29.2588C131.464 32.3043 130.226 35.0601 128.226 37.0602C126.226 39.0603 123.47 40.2985 120.425 40.2985H114.386V45.3853H110.638V18.1066ZM120.312 36.5501C124.339 36.5501 127.716 33.1736 127.716 29.1463C127.716 25.1189 124.339 21.7425 120.312 21.7425H114.386V36.5501H120.312ZM149.605 18.1066H160.279C166.37 18.1066 171.431 23.1678 171.431 29.2588C171.431 32.3043 170.193 35.0601 168.193 37.0602C166.193 39.0603 163.437 40.2985 160.392 40.2985H153.353V45.3853H149.605V18.1066ZM160.279 36.5501C164.306 36.5501 167.683 33.1736 167.683 29.1463C167.683 25.1189 164.306 21.7425 160.279 21.7425H153.353V36.5501H160.279ZM185.397 18.1066H203.8V21.4489H189.145V31.761H203.8V35.1033H189.145V42.0645H203.8V45.4262H185.397V18.1066ZM235.378 18.1066H246.239C252.331 18.1066 257.392 23.1678 257.392 29.2588C257.392 32.3043 256.153 35.0601 254.153 37.0602C252.153 39.0603 249.398 40.2985 246.352 40.2985H239.127V45.3853H235.378V18.1066ZM246.239 36.5501C250.266 36.5501 253.643 33.1736 253.643 29.1463C253.643 25.1189 250.266 21.7425 246.239 21.7425H239.127V36.5501H246.239ZM266.331 18.1066H284.733V21.4489H270.079V31.761H284.733V35.1033H270.079V42.0645H284.733V45.4262H266.331V18.1066ZM24.4939 12.0163L13.881 30.3989L3.26807 12.0163H24.4939Z" />
  </g>
</svg>
