<?xml version="1.0" encoding="UTF-8" ?>
<!DOCTYPE svg PUBLIC "-//W3C//DTD SVG 1.1//EN" "http://www.w3.org/Graphics/SVG/1.1/DTD/svg11.dtd">
<svg width="427pt" height="66pt" viewBox="0 0 427 66" version="1.1" xmlns="http://www.w3.org/2000/svg">
<g id="#ffffffff">
<path fill="#ffffff" opacity="1.00" d=" M 4.87 7.62 C 14.75 7.62 24.62 7.62 34.50 7.62 C 34.50 10.83 34.50 14.04 34.50 17.25 C 29.08 17.25 23.67 17.25 18.25 17.25 C 18.25 21.25 18.25 25.25 18.25 29.25 C 22.92 29.25 27.59 29.25 32.25 29.25 C 32.25 32.21 32.25 35.17 32.25 38.13 C 27.58 38.11 22.91 38.14 18.23 38.11 C 18.27 44.41 18.24 50.70 18.25 57.00 C 13.79 57.00 9.33 57.00 4.87 57.00 C 4.87 40.54 4.88 24.08 4.87 7.62 Z" />
<path fill="#ffffff" opacity="1.00" d=" M 38.74 7.62 C 43.20 7.63 47.67 7.62 52.13 7.62 C 52.10 19.43 52.16 31.24 52.10 43.04 C 52.30 44.38 51.72 46.06 52.73 47.16 C 54.81 47.79 57.00 47.42 59.12 47.25 C 59.42 34.04 59.17 20.82 59.25 7.60 C 63.75 7.64 68.24 7.60 72.74 7.65 C 72.74 21.03 72.77 34.42 72.74 47.81 C 72.79 50.90 71.38 54.08 68.58 55.58 C 64.38 57.78 59.49 56.79 54.96 57.00 C 50.45 56.89 45.19 57.76 41.48 54.58 C 39.18 52.81 38.70 49.73 38.74 47.02 C 38.76 33.88 38.76 20.75 38.74 7.62 Z" />
<path fill="#ffffff" opacity="1.00" d=" M 78.87 7.62 C 83.37 7.63 87.87 7.62 92.37 7.63 C 92.39 20.92 92.37 34.21 92.38 47.50 C 97.50 47.49 102.62 47.50 107.75 47.50 C 107.75 50.66 107.75 53.83 107.75 57.00 C 98.13 57.00 88.50 57.00 78.87 57.00 C 78.87 40.54 78.88 24.08 78.87 7.62 Z" />
<path fill="#ffffff" opacity="1.00" d=" M 110.74 7.62 C 115.24 7.63 119.73 7.62 124.23 7.63 C 124.27 20.92 124.24 34.21 124.25 47.50 C 129.37 47.49 134.50 47.50 139.62 47.50 C 139.62 50.66 139.62 53.83 139.63 57.00 C 130.00 57.00 120.37 57.00 110.75 57.00 C 110.74 40.54 110.76 24.08 110.74 7.62 Z" />
<path fill="#ffffff" opacity="1.00" d=" M 158.87 7.62 C 166.27 7.64 173.67 7.61 181.07 7.63 C 184.33 7.62 187.94 8.06 190.43 10.39 C 192.65 12.61 192.94 15.94 192.89 18.91 C 192.78 28.93 193.02 38.95 192.78 48.97 C 192.67 53.57 188.30 56.86 183.92 56.92 C 175.58 57.12 167.22 56.94 158.87 57.00 C 158.87 40.54 158.88 24.08 158.87 7.62 M 172.25 48.26 C 174.54 47.81 179.45 49.66 179.36 46.02 C 179.36 36.29 179.44 26.55 179.30 16.82 C 176.97 16.43 174.60 16.45 172.25 16.50 C 172.25 27.08 172.25 37.67 172.25 48.26 Z" />
<path fill="#ffffff" opacity="1.00" d=" M 198.74 7.62 C 203.23 7.63 207.73 7.62 212.23 7.63 C 212.27 24.09 212.24 40.54 212.25 57.00 C 207.75 57.00 203.25 57.00 198.75 57.00 C 198.74 40.54 198.76 24.08 198.74 7.62 Z" />
<path fill="#ffffff" opacity="1.00" d=" M 223.41 8.55 C 228.11 7.04 233.12 7.81 237.97 7.61 C 242.30 7.53 247.63 7.67 250.24 11.77 C 252.47 15.66 251.37 20.36 251.61 24.62 C 247.11 24.63 242.61 24.61 238.11 24.64 C 238.12 22.26 238.21 19.87 238.06 17.50 C 236.49 15.57 233.64 16.73 231.57 16.88 C 231.57 27.28 231.23 37.70 231.74 48.08 C 233.82 48.29 235.93 48.31 238.00 47.94 C 238.17 44.71 238.13 41.48 238.14 38.25 C 236.84 38.25 235.55 38.25 234.25 38.25 C 234.25 35.42 234.25 32.58 234.25 29.75 C 240.04 29.74 245.83 29.77 251.63 29.73 C 251.59 35.69 251.68 41.65 251.59 47.60 C 251.56 50.65 250.47 54.14 247.51 55.53 C 243.69 57.64 239.18 56.86 235.02 57.00 C 230.60 56.82 225.73 57.78 221.77 55.31 C 218.90 53.72 217.92 50.20 218.00 47.12 C 218.02 36.97 217.95 26.81 218.03 16.65 C 217.90 13.13 220.04 9.72 223.41 8.55 Z" />
<path fill="#ffffff" opacity="1.00" d=" M 257.00 7.62 C 261.46 7.63 265.91 7.62 270.37 7.63 C 270.39 24.09 270.37 40.54 270.38 57.00 C 265.92 57.00 261.46 57.00 257.00 57.00 C 257.00 40.54 257.00 24.08 257.00 7.62 Z" />
<path fill="#ffffff" opacity="1.00" d=" M 273.87 7.62 C 284.70 7.63 295.53 7.61 306.37 7.63 C 306.38 10.83 306.38 14.03 306.37 17.23 C 303.21 17.24 300.05 17.27 296.90 17.25 C 296.84 30.50 296.89 43.75 296.88 57.00 C 292.37 57.00 287.87 57.00 283.37 57.00 C 283.39 43.75 283.34 30.50 283.40 17.25 C 280.22 17.25 277.04 17.25 273.87 17.25 C 273.88 14.04 273.88 10.83 273.87 7.62 Z" />
<path fill="#ffffff" opacity="1.00" d=" M 306.74 57.00 C 310.95 40.53 315.23 24.09 319.41 7.62 C 324.88 7.64 330.35 7.60 335.83 7.64 C 340.04 24.10 344.25 40.55 348.51 57.00 C 343.99 57.00 339.48 57.00 334.96 57.00 C 334.49 54.53 333.91 52.08 333.36 49.62 C 329.43 49.63 325.50 49.62 321.57 49.62 C 321.05 52.09 320.51 54.55 319.95 57.00 C 315.55 57.00 311.15 57.00 306.74 57.00 M 327.63 22.41 C 326.20 28.29 325.00 34.23 323.61 40.13 C 326.19 40.12 328.76 40.12 331.34 40.13 C 330.14 34.21 328.77 28.33 327.63 22.41 Z" />
<path fill="#ffffff" opacity="1.00" d=" M 351.63 7.63 C 356.08 7.62 360.54 7.63 365.00 7.62 C 365.00 20.91 365.00 34.21 365.00 47.50 C 370.12 47.50 375.25 47.50 380.38 47.50 C 380.37 50.67 380.37 53.83 380.38 57.00 C 370.79 57.00 361.21 57.00 351.62 57.00 C 351.63 40.54 351.61 24.09 351.63 7.63 Z" />
<path fill="#ffffff" opacity="1.00" d=" M 382.73 47.37 C 385.99 47.38 389.24 47.38 392.50 47.38 C 392.50 50.58 392.50 53.79 392.50 57.00 C 389.25 57.00 386.00 57.00 382.75 57.00 C 382.76 53.79 382.75 50.58 382.73 47.37 Z" />
</g>
<g id="#94f33fff">
<path fill="#94f33f" opacity="1.00" d=" M 394.90 23.25 C 398.10 23.25 401.30 23.25 404.50 23.25 C 404.50 26.46 404.50 29.66 404.50 32.87 C 401.29 32.87 398.08 32.87 394.87 32.87 C 394.86 29.66 394.88 26.46 394.90 23.25 Z" />
<path fill="#94f33f" opacity="1.00" d=" M 406.90 23.25 C 410.15 23.26 413.39 23.25 416.64 23.24 C 416.62 26.45 416.61 29.66 416.64 32.87 C 413.38 32.87 410.12 32.87 406.87 32.87 C 406.86 29.66 406.88 26.46 406.90 23.25 Z" />
<path fill="#94f33f" opacity="1.00" d=" M 382.75 35.26 C 386.00 35.25 389.25 35.25 392.50 35.25 C 392.50 38.50 392.50 41.75 392.50 45.00 C 389.25 45.00 386.00 45.00 382.75 45.00 C 382.75 41.75 382.75 38.50 382.75 35.26 Z" />
<path fill="#94f33f" opacity="1.00" d=" M 394.90 35.25 C 398.10 35.25 401.30 35.25 404.50 35.25 C 404.50 38.50 404.50 41.75 404.50 45.00 C 401.29 45.00 398.09 45.00 394.88 45.00 C 394.86 41.75 394.87 38.50 394.90 35.25 Z" />
<path fill="#94f33f" opacity="1.00" d=" M 406.90 35.25 C 410.15 35.26 413.39 35.25 416.64 35.24 C 416.62 38.49 416.61 41.74 416.63 44.99 C 413.38 45.00 410.13 45.00 406.88 45.00 C 406.86 41.75 406.87 38.50 406.90 35.25 Z" />
<path fill="#94f33f" opacity="1.00" d=" M 394.89 47.38 C 398.09 47.37 401.30 47.37 404.50 47.38 C 404.50 50.59 404.50 53.79 404.50 57.00 C 401.29 57.00 398.08 57.00 394.88 57.00 C 394.86 53.79 394.87 50.59 394.89 47.38 Z" />
</g>
</svg>
