<svg xmlns="http://www.w3.org/2000/svg" width="480" height="214" viewBox="0 0 480 214">
  <defs>
    <style>text { font-family: -apple-system, BlinkMacSystemFont, "Segoe UI", Helvetica, Arial, sans-serif; }</style>
  </defs>
  <!-- Card -->
  <rect x="1" y="1" width="478" height="212" rx="6" fill="#ffffff" stroke="#d0d7de" stroke-width="1"/>
  <!-- Section label -->
  <text x="16" y="24" font-size="11" font-weight="600" fill="#8c959f" letter-spacing="0.5">COMPACTION</text>
  <!-- Mode field -->
  <text x="16" y="50" font-size="13" font-weight="600" fill="#24292f">Compaction Mode</text>
  <rect x="16" y="58" width="88" height="28" rx="5" fill="#0969da" stroke="#0969da"/>
  <text x="60" y="77" font-size="12" font-weight="600" fill="#ffffff" text-anchor="middle">default</text>
  <rect x="104" y="58" width="96" height="28" rx="5" fill="#f6f8fa" stroke="#d0d7de"/>
  <text x="152" y="77" font-size="12" fill="#57606a" text-anchor="middle">safeguard</text>
  <!-- Divider -->
  <line x1="16" y1="98" x2="464" y2="98" stroke="#d0d7de" stroke-width="1"/>
  <!-- NEW: Fallback Model field (highlighted) -->
  <rect x="8" y="104" width="464" height="66" rx="4" fill="#ddf4ff" stroke="#54aeff" stroke-width="1" stroke-dasharray="4,2"/>
  <text x="16" y="122" font-size="13" font-weight="600" fill="#24292f">Compaction Fallback Model</text>
  <text x="16" y="137" font-size="11" fill="#57606a">"off" surfaces the error. "fallback" retries using the model.fallbacks chain, skipping the current model.</text>
  <rect x="16" y="143" width="48" height="16" rx="3" fill="#0969da"/>
  <text x="40" y="155" font-size="11" font-weight="600" fill="#ffffff" text-anchor="middle">off</text>
  <rect x="64" y="143" width="64" height="16" rx="3" fill="#f6f8fa" stroke="#d0d7de"/>
  <text x="96" y="155" font-size="11" fill="#57606a" text-anchor="middle">fallback</text>
  <text x="140" y="155" font-size="10" fill="#0969da" font-weight="600">← NEW</text>
  <!-- Divider -->
  <line x1="16" y1="178" x2="464" y2="178" stroke="#d0d7de" stroke-width="1"/>
  <!-- Reserve Tokens field -->
  <text x="16" y="200" font-size="13" font-weight="600" fill="#24292f">Compaction Reserve Tokens</text>
</svg>
