<svg viewBox="0 0 120 120" fill="none" xmlns="http://www.w3.org/2000/svg">
  <defs>
    <linearGradient id="nexus-gradient" x1="0%" y1="0%" x2="100%" y2="100%">
      <stop offset="0%" stop-color="#8b5cf6"/>
      <stop offset="100%" stop-color="#06b6d4"/>
    </linearGradient>
  </defs>
  <!-- Body (cephalothorax + abdomen) -->
  <ellipse cx="60" cy="44" rx="16" ry="14" fill="url(#nexus-gradient)"/>
  <ellipse cx="60" cy="72" rx="20" ry="18" fill="url(#nexus-gradient)"/>
  <!-- Legs - Left side -->
  <path d="M44 38 Q20 20 10 28" stroke="#8b5cf6" stroke-width="3" stroke-linecap="round" fill="none"/>
  <path d="M44 44 Q16 36 8 48" stroke="#8b5cf6" stroke-width="3" stroke-linecap="round" fill="none"/>
  <path d="M44 50 Q18 54 10 68" stroke="#8b5cf6" stroke-width="3" stroke-linecap="round" fill="none"/>
  <path d="M42 64 Q22 72 14 88" stroke="#8b5cf6" stroke-width="3" stroke-linecap="round" fill="none"/>
  <!-- Legs - Right side -->
  <path d="M76 38 Q100 20 110 28" stroke="#06b6d4" stroke-width="3" stroke-linecap="round" fill="none"/>
  <path d="M76 44 Q104 36 112 48" stroke="#06b6d4" stroke-width="3" stroke-linecap="round" fill="none"/>
  <path d="M76 50 Q102 54 110 68" stroke="#06b6d4" stroke-width="3" stroke-linecap="round" fill="none"/>
  <path d="M78 64 Q98 72 106 88" stroke="#06b6d4" stroke-width="3" stroke-linecap="round" fill="none"/>
  <!-- Eyes -->
  <circle cx="52" cy="38" r="4" fill="#08090d"/>
  <circle cx="68" cy="38" r="4" fill="#08090d"/>
  <circle cx="53" cy="37" r="1.8" fill="#fbbf24"/>
  <circle cx="69" cy="37" r="1.8" fill="#fbbf24"/>
  <!-- Web thread from top -->
  <path d="M60 30 L60 6" stroke="#6b7394" stroke-width="1.5" stroke-linecap="round" stroke-dasharray="3 2"/>
</svg>
