<svg xmlns="http://www.w3.org/2000/svg" width="1024" height="1024" viewBox="0 0 1024 1024" fill="none">
  <defs>
    <filter id="blur-xl" x="-30%" y="-30%" width="160%" height="160%">
      <feGaussianBlur stdDeviation="72"/>
    </filter>
    <filter id="soft-shadow" x="-20%" y="-20%" width="140%" height="160%">
      <feGaussianBlur in="SourceAlpha" stdDeviation="18" result="blur"/>
      <feOffset dy="18" result="offset"/>
      <feColorMatrix in="offset" type="matrix" values="0 0 0 0 0.03 0 0 0 0 0.06 0 0 0 0 0.10 0 0 0 0.18 0"/>
      <feBlend in="SourceGraphic"/>
    </filter>
    <radialGradient id="base-wash" cx="0" cy="0" r="1" gradientUnits="userSpaceOnUse" gradientTransform="translate(514 430) rotate(90) scale(760)">
      <stop stop-color="#F7EEDF"/>
      <stop offset="1" stop-color="#EEE3CF"/>
    </radialGradient>
  </defs>

  <rect width="1024" height="1024" fill="url(#base-wash)"/>
  <ellipse cx="268" cy="214" rx="328" ry="236" fill="#F9C98C" fill-opacity="0.58" filter="url(#blur-xl)"/>
  <ellipse cx="766" cy="170" rx="286" ry="206" fill="#F6E4C9" fill-opacity="0.48" filter="url(#blur-xl)"/>
  <ellipse cx="582" cy="380" rx="398" ry="292" fill="#FFFFFF" fill-opacity="0.24" filter="url(#blur-xl)"/>
  <ellipse cx="590" cy="930" rx="552" ry="256" fill="#B8D0E1" fill-opacity="0.74" filter="url(#blur-xl)"/>
  <ellipse cx="702" cy="838" rx="262" ry="138" fill="#D2E5EE" fill-opacity="0.34" filter="url(#blur-xl)"/>
  <ellipse cx="512" cy="430" rx="294" ry="230" fill="#FFF8ED" fill-opacity="0.18" filter="url(#blur-xl)"/>

  <g filter="url(#soft-shadow)">
    <g transform="translate(147 144) scale(1.408)" fill="#08111D">
      <g transform="translate(-83.236353,612.742358) scale(0.100000,-0.100000)"
fill="#000000" stroke="none">
<path d="M3036 6110 c-766 -162 -1417 -795 -1586 -1545 -30 -129 -37 -342 -16
-467 58 -352 284 -743 610 -1056 59 -57 109 -102 112 -100 2 2 -11 46 -28 98
-40 121 -49 266 -23 356 36 125 100 207 238 303 386 267 710 718 821 1142 29
110 49 240 44 288 l-3 34 -39 -57 c-79 -115 -267 -286 -396 -359 -80 -45 -162
-67 -252 -67 -113 0 -150 13 -208 68 -55 53 -70 94 -70 188 0 284 402 822 875
1171 36 27 34 27 -79 3z M3715 6122 c6 -5 55 -44 110 -88 436 -345 785 -836
785 -1104 0 -165 -100 -254 -280 -252 -113 1 -238 50 -357 138 -76 57 -213
193 -271 269 -25 33 -50 65 -55 70 -15 15 0 -157 22 -255 97 -432 420 -903
807 -1177 273 -194 339 -390 236 -698 -15 -47 -25 -85 -21 -85 15 0 205 189
281 279 157 188 315 451 381 637 149 416 66 902 -231 1353 -106 161 -325 396
-477 512 -156 120 -343 224 -535 299 -127 49 -421 125 -395 102z M5746 4159
c77 -291 10 -573 -151 -644 -67 -30 -75 -41 -90 -128 -44 -252 -288 -579 -461
-618 -47 -11 -69 -10 -150 5 -125 24 -153 18 -223 -48 -120 -113 -207 -152
-285 -126 -57 19 -64 45 -28 116 87 172 84 353 -8 512 -40 68 -154 188 -239
251 -64 47 -151 97 -151 86 0 -3 18 -48 41 -100 57 -135 71 -190 72 -275 0
-202 -140 -364 -390 -449 -135 -45 -331 -52 -468 -17 -179 47 -338 163 -402
292 -66 134 -58 255 32 453 23 53 41 98 40 100 -8 7 -121 -64 -191 -121 -144
-116 -244 -277 -266 -426 -14 -93 5 -196 53 -289 36 -72 36 -96 2 -123 -23
-18 -36 -21 -77 -16 -70 8 -123 37 -198 109 -89 86 -111 94 -202 78 -176 -32
-223 -25 -318 47 -156 118 -323 385 -350 561 -14 88 -21 99 -82 126 -84 37
-141 122 -172 252 -22 93 -14 289 15 392 12 40 20 75 18 78 -9 8 -83 -86 -131
-166 -100 -166 -145 -329 -153 -556 -12 -352 92 -644 338 -950 35 -44 71 -93
79 -108 18 -36 152 -149 256 -217 156 -102 288 -150 464 -170 73 -8 88 -13
108 -35 31 -36 29 -92 -8 -200 -82 -241 -81 -441 3 -599 38 -72 174 -214 262
-273 101 -68 288 -153 336 -153 6 0 -12 25 -40 56 -29 31 -66 77 -83 102 -90
130 -91 361 -3 449 54 54 109 44 240 -42 185 -122 352 -331 452 -567 20 -48
38 -86 40 -85 1 2 7 50 12 108 17 175 -10 406 -74 645 -66 244 -140 378 -288
522 -86 82 -99 114 -70 164 38 65 128 85 212 47 137 -62 247 -218 321 -457
l32 -103 38 113 c68 204 101 263 197 360 116 119 246 141 318 56 46 -55 29
-102 -73 -193 -170 -153 -294 -467 -343 -865 -12 -96 -7 -358 6 -380 4 -7 36
47 75 127 77 157 141 252 243 359 85 90 171 157 252 195 84 40 118 38 165 -9
88 -88 87 -318 -2 -445 -12 -18 -46 -60 -76 -95 -30 -34 -52 -62 -49 -62 15 0
159 56 212 83 141 70 295 201 367 312 104 159 110 371 17 653 -23 68 -27 139
-10 171 13 24 52 35 172 50 102 13 201 45 301 98 145 76 331 225 375 301 14
24 46 67 70 95 335 393 431 918 251 1372 -34 85 -127 231 -176 279 l-30 28 24
-93z M1066 2310 c8 -57 43 -145 85 -216 130 -214 347 -370 556 -399 l52 -7 11
44 c6 23 15 55 20 69 8 26 6 27 -53 44 -77 21 -204 80 -283 130 -128 82 -218
166 -362 340 l-33 40 7 -45z M5743 2298 c-164 -206 -412 -385 -622 -448 -48
-15 -71 -27 -67 -35 2 -7 10 -38 17 -69 16 -66 22 -68 138 -36 249 69 493 296
562 522 11 36 19 78 17 93 -3 24 -5 23 -45 -27z"/>
</g>
    </g>
  </g>
</svg>
