<?xml version="1.0" standalone="no"?>
<!DOCTYPE svg PUBLIC "-//W3C//DTD SVG 20010904//EN"
 "http://www.w3.org/TR/2001/REC-SVG-20010904/DTD/svg10.dtd">
<svg version="1.0" xmlns="http://www.w3.org/2000/svg"
 width="432.000000pt" height="454.000000pt" viewBox="0 0 432.000000 454.000000"
 preserveAspectRatio="xMidYMid meet">
<metadata>
Created by potrace 1.16, written by Peter Selinger 2001-2019
</metadata>
<g transform="translate(0.000000,454.000000) scale(0.100000,-0.100000)"
fill="#000000" stroke="none">
<path d="M1575 3274 c-125 -33 -260 -92 -319 -141 -66 -54 -130 -119 -154
-158 -168 -260 -172 -570 -11 -825 55 -89 843 -870 877 -870 15 0 43 22 85 67
34 36 77 82 95 101 17 19 32 38 32 41 0 4 -182 189 -404 412 -242 243 -411
421 -423 444 -33 64 -53 148 -53 217 0 156 80 277 232 352 75 38 77 38 179 34
96 -3 109 -6 177 -40 l73 -37 37 32 c76 66 171 173 171 192 0 26 -37 54 -135
103 -122 61 -182 76 -319 78 -66 2 -129 0 -140 -2z"/>
<path d="M1140 1863 c-81 -96 -133 -210 -156 -343 -18 -109 -18 -168 2 -271
33 -177 153 -363 299 -466 160 -111 371 -150 576 -104 175 39 261 96 479 313
342 342 625 641 628 662 2 15 -24 47 -97 119 -84 84 -102 97 -117 89 -11 -6
-181 -175 -379 -377 -370 -377 -425 -426 -516 -473 -49 -24 -64 -27 -159 -27
-95 1 -111 4 -163 30 -117 57 -193 148 -231 274 -29 98 -20 171 36 289 36 75
41 63 -94 205 -87 90 -94 96 -108 80z"/>
</g>
</svg>
