<?xml version="1.0" standalone="no"?>
<!DOCTYPE svg PUBLIC "-//W3C//DTD SVG 20010904//EN"
 "http://www.w3.org/TR/2001/REC-SVG-20010904/DTD/svg10.dtd">
<svg version="1.0" xmlns="http://www.w3.org/2000/svg"
 width="432.000000pt" height="454.000000pt" viewBox="0 0 432.000000 454.000000"
 preserveAspectRatio="xMidYMid meet">
<metadata>
Created by potrace 1.16, written by Peter Selinger 2001-2019
</metadata>
<g transform="translate(0.000000,454.000000) scale(0.100000,-0.100000)"
fill="#000000" stroke="none">
<path d="M2760 3283 c-97 -12 -227 -63 -320 -126 -57 -37 -200 -177 -200 -195
0 -7 -7 -15 -16 -19 -15 -6 -146 -135 -486 -480 -82 -83 -148 -158 -148 -168
0 -30 36 -78 105 -140 93 -83 99 -87 127 -76 13 5 114 101 224 213 411 414
598 593 645 616 100 48 253 51 338 5 82 -43 145 -107 186 -187 37 -73 38 -78
37 -177 -1 -91 -5 -108 -33 -170 -22 -48 -30 -76 -25 -94 6 -25 136 -161 183
-192 31 -21 53 -10 97 50 78 105 114 215 123 374 4 78 2 119 -11 172 -19 78
-76 223 -98 249 -8 9 -29 40 -46 67 -70 110 -181 189 -350 250 -51 18 -95 25
-182 28 -63 3 -131 3 -150 0z"/>
<path d="M2492 2587 c-94 -94 -102 -103 -102 -134 0 -22 163 -200 323 -353
321 -305 452 -452 513 -571 24 -48 27 -66 28 -154 1 -94 -1 -104 -31 -160 -52
-98 -127 -167 -224 -205 -44 -18 -68 -21 -134 -17 -79 4 -172 28 -210 54 -44
29 -70 17 -170 -79 -66 -65 -95 -100 -95 -116 0 -33 59 -83 149 -127 118 -59
188 -75 321 -75 143 0 200 14 336 83 119 60 205 136 276 245 104 159 122 217
123 407 0 158 -14 214 -88 355 -46 89 -70 119 -213 270 -157 164 -195 202
-328 325 -66 61 -169 161 -229 223 -85 86 -116 112 -136 112 -20 0 -48 -21
-109 -83z"/>
</g>
</svg>
